<svg id="Layer_1" data-name="Layer 1" xmlns="http://www.w3.org/2000/svg" viewBox="0 0 436.64 512"><defs><style>.cls-1{fill:#a9ffc6;}.cls-2{fill:#ffcd85;}.cls-3{fill:#4d5152;}</style></defs><title>Vector Smart Object3</title><path class="cls-1" d="M371.33,206.76,238.57,339.52a24.26,24.26,0,0,1-34.3,0l-63.59-63.59A24.25,24.25,0,1,1,175,241.63l46.45,46.45L337,172.47a24.25,24.25,0,0,1,34.3,34.29ZM256,10.77a842.09,842.09,0,0,1-207.55,88v110C48.45,415.3,227,501.23,256,501.23S463.55,415.3,463.55,208.84V98.8A868.4,868.4,0,0,1,256,10.77Z" transform="translate(-37.68 0)"/><path class="cls-2" d="M238.57,339.52,371.33,206.76A24.25,24.25,0,0,0,337,172.47L221.42,288.08,175,241.63a24.25,24.25,0,1,0-34.29,34.3l63.59,63.6A24.27,24.27,0,0,0,238.57,339.52Z" transform="translate(-37.68 0)"/><path class="cls-3" d="M466.39,88.41A851.89,851.89,0,0,1,261.48,1.5a10.74,10.74,0,0,0-11,0A828.65,828.65,0,0,1,45.6,88.41,10.77,10.77,0,0,0,37.68,98.8V208.85c0,113.32,52.28,188.33,96.14,231.3C181,486.42,236,512,256,512s75-25.58,122.19-71.85c43.85-43,96.13-118,96.13-231.31V98.8A10.77,10.77,0,0,0,466.39,88.41ZM452.78,208.84c0,105.85-48.76,175.84-89.67,215.92-46.43,45.5-96.07,65.7-107.11,65.7s-60.68-20.2-107.11-65.7C108,384.68,59.22,314.69,59.22,208.84V107A848.39,848.39,0,0,0,256,23.25,875,875,0,0,0,452.78,107Z" transform="translate(-37.68 0)"/><path class="cls-3" d="M182.59,234a35,35,0,0,0-49.53,49.53l63.6,63.59a35,35,0,0,0,49.53,0L379,214.38a35,35,0,0,0-49.54-49.53l-108,108Zm162.06-53.93a13.48,13.48,0,1,1,19.06,19.06L231,331.91a13.47,13.47,0,0,1-19.06,0l-63.6-63.59a13.48,13.48,0,0,1,19.07-19.07L213.8,295.7a10.78,10.78,0,0,0,15.23,0Z" transform="translate(-37.68 0)"/></svg>