<svg width="136" height="135" viewBox="0 0 136 135" fill="none" xmlns="http://www.w3.org/2000/svg">
<path d="M67.7894 0C30.5238 0 0.42128 30.172 0.42128 67.5C0.42128 104.839 30.5343 135 67.7894 135C105.055 135 135.157 104.828 135.157 67.5C135.157 30.1614 105.044 0 67.7894 0Z" fill="#6EF4A4"/>
<path d="M135.157 67.5C135.157 104.828 105.055 135 67.7894 135V0C105.044 0 135.157 30.1614 135.157 67.5Z" fill="#5AE290"/>
<path d="M67.7894 15.8203C39.35 15.8203 16.2107 39.005 16.2107 67.5C16.2107 95.995 39.35 119.18 67.7894 119.18C96.2287 119.18 119.368 95.995 119.368 67.5C119.368 39.005 96.2287 15.8203 67.7894 15.8203Z" fill="#9AFFC2"/>
<g clip-path="url(#clip0)">
<path d="M59.9956 53.1629L60.0021 53.1498L60.0085 53.1366L66.32 40.0108C66.3204 40.01 66.3208 40.0092 66.3211 40.0085C66.8759 38.8694 68.4338 38.8502 69.0154 39.9701L75.5439 53.0158C75.5442 53.0165 75.5445 53.0172 75.5449 53.0178C76.3582 54.646 77.9242 55.748 79.7141 55.9815C79.7162 55.9818 79.7182 55.982 79.7203 55.9823L94.1251 57.9287C94.1267 57.9289 94.1283 57.9292 94.1299 57.9294C95.4056 58.1133 95.8079 59.6128 94.9977 60.3956L94.9872 60.4058L94.9768 60.4161L84.6605 70.679L84.6555 70.6841C83.3705 71.9716 82.7668 73.7682 83.1133 75.5882L85.6811 89.9223C85.907 91.1837 84.6124 92.0984 83.5362 91.5438L83.5361 91.5438L70.6131 84.8858L70.6031 84.8806L70.593 84.8755C68.9993 84.0771 67.1004 84.0705 65.4838 84.9382L65.4798 84.9404L52.6703 91.8542C52.6696 91.8545 52.6689 91.8549 52.6682 91.8553C51.5732 92.4415 50.287 91.5033 50.4867 90.3025L50.4867 90.3025L50.4885 90.2918L52.8013 75.9093C52.8013 75.9092 52.8014 75.9091 52.8014 75.909C53.0868 74.1349 52.512 72.3317 51.1826 71.0576L40.689 60.9846C40.6884 60.984 40.6877 60.9833 40.6871 60.9827C39.7935 60.1159 40.2737 58.5942 41.5127 58.4032L55.9026 56.1964L55.9105 56.1952L55.9185 56.1939C57.7274 55.9016 59.2103 54.7365 59.9956 53.1629Z" fill="#6EF4A4" stroke="#5AE290" stroke-width="4"/>
</g>
<defs>
<clipPath id="clip0">
<rect width="59.1811" height="56.906" fill="white" transform="translate(38.2355 37.1526)"/>
</clipPath>
</defs>
</svg>
