<svg width="136" height="135" viewBox="0 0 136 135" fill="none" xmlns="http://www.w3.org/2000/svg">
<path d="M68.2106 0C30.945 0 0.84256 30.172 0.84256 67.5C0.84256 104.839 30.9556 135 68.2106 135C105.476 135 135.579 104.828 135.579 67.5C135.579 30.1614 105.466 0 68.2106 0Z" fill="#FFB5D6"/>
<path d="M135.579 67.5C135.579 104.828 105.476 135 68.2106 135V0C105.466 0 135.579 30.1614 135.579 67.5Z" fill="#EB9ABE"/>
<path d="M68.2107 15.8203C39.7713 15.8203 16.632 39.005 16.632 67.5C16.632 95.995 39.7713 119.18 68.2107 119.18C96.65 119.18 119.789 95.995 119.789 67.5C119.789 39.005 96.65 15.8203 68.2107 15.8203Z" fill="#FFD2E2"/>
<path d="M92.4214 69.825L92.4223 69.8241C98.7853 63.8064 98.7853 54.0992 92.4223 48.0815C86.1229 42.1239 76.0176 42.1236 69.7178 48.0806C69.7177 48.0807 69.7175 48.0809 69.7174 48.081C69.7172 48.0811 69.717 48.0813 69.7169 48.0815L68.3942 49.3308L67.0716 48.0815C67.0714 48.0813 67.0712 48.0811 67.071 48.081C67.0709 48.0809 67.0708 48.0807 67.0706 48.0806C60.7709 42.1236 50.6655 42.1239 44.3661 48.0815C38.0031 54.0992 38.0031 63.8064 44.3661 69.8241L44.367 69.825L47.0639 72.3723L47.0644 72.3728L67.0214 91.2092L68.3942 92.5049L69.767 91.2092L89.724 72.3728L89.7245 72.3723L92.4214 69.825Z" fill="#FFB5D6" stroke="#EB9ABE" stroke-width="4"/>
</svg>
