<svg width="135" height="135" viewBox="0 0 135 135" fill="none" xmlns="http://www.w3.org/2000/svg">
<path d="M67.3681 0C30.1025 0 0 30.172 0 67.5C0 104.839 30.113 135 67.3681 135C104.634 135 134.736 104.828 134.736 67.5C134.736 30.1614 104.623 0 67.3681 0Z" fill="#EAF065"/>
<path d="M134.736 67.5C134.736 104.828 104.634 135 67.3681 135V0C104.623 0 134.736 30.1614 134.736 67.5Z" fill="#DCE165"/>
<path d="M67.3681 15.8203C38.9288 15.8203 15.7894 39.005 15.7894 67.5C15.7894 95.995 38.9288 119.18 67.3681 119.18C95.8074 119.18 118.947 95.995 118.947 67.5C118.947 39.005 95.8074 15.8203 67.3681 15.8203Z" fill="#FAFF87"/>
<g clip-path="url(#clip0)">
<path d="M43.6486 65.2929L79.0602 35.5094L73.9589 54.3409L91.0456 65.2929L55.4854 95.0764L60.8343 75.4025L43.6486 65.2929Z" fill="#EAF065" stroke="#D4DA43" stroke-width="4" stroke-miterlimit="10" stroke-linejoin="round"/>
</g>
<defs>
<clipPath id="clip0">
<rect width="53.2336" height="62.1662" fill="white" transform="translate(40.7513 34.2098)"/>
</clipPath>
</defs>
</svg>
