<svg width="135" height="135" viewBox="0 0 135 135" fill="none" xmlns="http://www.w3.org/2000/svg">
<path d="M67.6319 0C30.3663 0 0.263824 30.172 0.263824 67.5C0.263824 104.839 30.3768 135 67.6319 135C104.898 135 135 104.828 135 67.5C135 30.1614 104.887 0 67.6319 0Z" fill="#88FAFA"/>
<path d="M135 67.5C135 104.828 104.898 135 67.632 135V0C104.887 0 135 30.1614 135 67.5Z" fill="#5EF0F0"/>
<path d="M67.6319 15.8203C39.1926 15.8203 16.0532 39.005 16.0532 67.5C16.0532 95.995 39.1926 119.18 67.6319 119.18C96.0713 119.18 119.211 95.995 119.211 67.5C119.211 39.005 96.0713 15.8203 67.6319 15.8203Z" fill="#B3FFFF"/>
<path d="M91.8458 58.1248C88.9698 54.0948 84.3133 51.6811 79.404 51.6811C78.0661 51.6811 76.7492 51.8619 75.485 52.2022L85.1245 42.4729C85.4089 42.1858 85.5038 41.7711 85.3773 41.3989C85.2509 41.0161 84.9349 40.7397 84.5451 40.6759C79.6884 39.8784 74.7054 41.4946 71.2288 45.0035C69.7118 46.5347 68.553 48.353 67.7944 50.3201C67.0359 48.353 65.8771 46.5347 64.36 45.0035C60.894 41.484 55.911 39.8678 51.0543 40.6652C50.6645 40.729 50.338 41.0055 50.2221 41.3883C50.0956 41.7711 50.201 42.1858 50.4749 42.4622L60.1039 52.1809C58.8502 51.8513 57.5439 51.6705 56.2165 51.6705C51.2966 51.6705 46.6507 54.0736 43.7747 58.1141C43.5429 58.4331 43.5113 58.8691 43.6904 59.22C43.8695 59.5709 44.2277 59.7942 44.628 59.7942H57.27C56.1533 60.4534 55.1103 61.2509 54.1832 62.1973C50.7067 65.7062 49.1054 70.725 49.8955 75.6375C49.9587 76.0309 50.2326 76.3605 50.6119 76.4775C50.7172 76.5094 50.8226 76.5307 50.9384 76.5307C51.2124 76.5307 51.4863 76.4243 51.6864 76.2223L63.7911 64.0049V84.984C58.2813 85.9197 53.2245 88.78 49.5373 93.1502C49.2739 93.4692 49.2107 93.9051 49.3793 94.2879C49.5478 94.6601 49.9271 94.9046 50.338 94.9046H63.0748C63.6542 94.9046 64.1283 94.4262 64.1283 93.8413C64.1283 93.2565 63.6542 92.778 63.0748 92.778H52.8031C56.8486 88.9395 62.1898 86.7703 67.805 86.7703C73.4201 86.7703 78.7614 88.9395 82.8068 92.778H72.5563C71.9768 92.778 71.5028 93.2565 71.5028 93.8413C71.5028 94.4262 71.9768 94.9046 72.5563 94.9046H85.2615C85.6723 94.9046 86.041 94.6601 86.2201 94.2879C86.3887 93.9158 86.336 93.4692 86.0621 93.1502C82.3749 88.78 77.3181 85.9197 71.8083 84.984V63.973L83.9446 76.2223C84.1447 76.4243 84.4187 76.5307 84.6926 76.5307C84.7979 76.5307 84.9138 76.5094 85.0192 76.4775C85.3984 76.3499 85.6723 76.0309 85.7355 75.6375C86.5257 70.7356 84.9243 65.7062 81.4478 62.1973C80.5207 61.2615 79.4777 60.4534 78.361 59.7942H91.003C91.4034 59.7942 91.7616 59.5709 91.9406 59.22C92.1092 58.8691 92.0776 58.4438 91.8458 58.1248ZM72.7248 46.4922C75.2005 43.9934 78.5612 42.6111 82.0167 42.5898L68.8585 55.8706C68.8795 52.3829 70.2491 48.991 72.7248 46.4922ZM62.8746 46.4922C65.3503 48.991 66.7304 52.3829 66.7409 55.8706L53.5827 42.5898C57.0382 42.6111 60.3989 43.9934 62.8746 46.4922ZM56.227 53.8077C59.7352 53.8077 63.0748 55.2219 65.5399 57.6782H46.9246C49.3793 55.2219 52.7189 53.8077 56.227 53.8077ZM55.6792 63.7072C58.1549 61.2084 61.5156 59.8154 64.9711 59.8048L51.8129 73.0962C51.8339 69.5979 53.2035 66.2059 55.6792 63.7072ZM65.9087 73.4152H69.7013V78.0937H65.9087V73.4152ZM69.7013 71.2885H65.9087V66.61H69.7013V71.2885ZM67.805 84.6437C67.1729 84.6437 66.5408 84.665 65.9087 84.7181V80.2203H69.7013V84.7181C69.0692 84.665 68.4371 84.6437 67.805 84.6437ZM69.7013 64.4834H65.9087V61.8783L67.8155 59.9537L69.7013 61.857V64.4834ZM83.8182 73.0962L70.66 59.8048C74.1154 59.8261 77.4761 61.2084 79.9518 63.7072C82.4275 66.2059 83.7971 69.5979 83.8182 73.0962ZM70.1016 57.6782C72.5563 55.2219 75.9064 53.8077 79.4145 53.8077C82.9227 53.8077 86.2623 55.2219 88.7275 57.6782H70.1016Z" fill="#3CE5E1"/>
<path fill-rule="evenodd" clip-rule="evenodd" d="M49.3793 94.2879C49.2107 93.9051 49.2739 93.4692 49.5373 93.1502C53.2245 88.78 58.2813 85.9197 63.7911 84.984V64.0049L51.6864 76.2223C51.4863 76.4243 51.2124 76.5307 50.9384 76.5307C50.8226 76.5307 50.7172 76.5094 50.6119 76.4775C50.2326 76.3605 49.9587 76.0309 49.8955 75.6375C49.1054 70.725 50.7067 65.7062 54.1832 62.1973C54.6833 61.6868 55.2171 61.2197 55.7779 60.7942C56.2569 60.4308 56.7556 60.0978 57.27 59.7942H44.628C44.2277 59.7942 43.8695 59.5709 43.6904 59.22C43.5113 58.8691 43.5429 58.4331 43.7747 58.1141C46.6507 54.0736 51.2966 51.6705 56.2165 51.6705C56.9328 51.6705 57.6429 51.7231 58.342 51.8234C58.9384 51.9089 59.5267 52.0291 60.1039 52.1809L50.4749 42.4622C50.201 42.1858 50.0956 41.7711 50.2221 41.3883C50.338 41.0055 50.6645 40.729 51.0543 40.6652C55.911 39.8678 60.894 41.484 64.36 45.0036C65.5462 46.2007 66.5133 47.5734 67.2414 49.0555C67.4445 49.469 67.629 49.891 67.7944 50.3201C67.9599 49.891 68.1444 49.469 68.3475 49.0555C69.0756 47.5734 70.0427 46.2007 71.2288 45.0036C74.7054 41.4946 79.6884 39.8784 84.5451 40.6759C84.9349 40.7397 85.2509 41.0161 85.3773 41.3989C85.5038 41.7711 85.4089 42.1858 85.1245 42.4729L75.485 52.2022C76.0649 52.0461 76.6558 51.9236 77.2548 51.8367C77.9617 51.7341 78.6798 51.6811 79.404 51.6811C84.3133 51.6811 88.9698 54.0948 91.8458 58.1248C92.0776 58.4438 92.1092 58.8691 91.9406 59.22C91.7616 59.5709 91.4034 59.7942 91.003 59.7942H78.361C78.8737 60.0968 79.3708 60.4308 79.8483 60.7942C80.4109 61.2223 80.9463 61.6911 81.4478 62.1973C84.9243 65.7062 86.5257 70.7356 85.7355 75.6375C85.6723 76.0309 85.3984 76.3499 85.0192 76.4775C84.9138 76.5094 84.7979 76.5307 84.6926 76.5307C84.4187 76.5307 84.1447 76.4243 83.9446 76.2223L71.8083 63.973V84.984C77.3181 85.9197 82.3749 88.78 86.0621 93.1502C86.336 93.4692 86.3887 93.9158 86.2201 94.2879C86.041 94.6601 85.6723 94.9046 85.2615 94.9046H72.5563C71.9768 94.9046 71.5028 94.4261 71.5028 93.8413C71.5028 93.2565 71.9768 92.778 72.5563 92.778H82.8068C82.441 92.4309 82.0646 92.0975 81.6783 91.778C77.7931 88.5649 72.9124 86.7703 67.805 86.7703C62.6976 86.7703 57.8168 88.5649 53.9316 91.778C53.5454 92.0975 53.169 92.4309 52.8031 92.778H63.0748C63.6542 92.778 64.1283 93.2565 64.1283 93.8413C64.1283 94.4261 63.6542 94.9046 63.0748 94.9046H50.338C49.9271 94.9046 49.5478 94.6601 49.3793 94.2879ZM79.2947 43.9163C77.1025 44.4338 75.0616 45.5544 73.4352 47.196C71.8097 48.8367 70.698 50.897 70.1838 53.1121L79.2947 43.9163ZM80.5146 42.6851C77.6006 43.0377 74.8398 44.3575 72.7248 46.4922C70.6098 48.6268 69.3022 51.4134 68.9528 54.3545C68.8932 54.8562 68.8615 55.3624 68.8585 55.8706L82.0167 42.5898C81.5132 42.5929 81.0117 42.6249 80.5146 42.6851ZM65.4216 53.1182C64.9091 50.9022 63.7924 48.8393 62.1642 47.196C60.5378 45.5544 58.4969 44.4338 56.3047 43.9163L65.4216 53.1182ZM66.6504 54.3584C66.7089 54.8588 66.7394 55.3637 66.7409 55.8706L53.5827 42.5898C54.0862 42.5929 54.5878 42.6249 55.0848 42.6851C57.9988 43.0377 60.7596 44.3575 62.8746 46.4922C64.9905 48.6278 66.3061 51.4158 66.6504 54.3584ZM62.6889 56.6782C60.7701 55.4721 58.5369 54.8077 56.227 54.8077C53.9166 54.8077 51.6835 55.4723 49.7689 56.6782H62.6889ZM64.4166 56.6782C62.1044 54.8422 59.2274 53.8077 56.227 53.8077C53.2267 53.8077 50.3496 54.8422 48.044 56.6782C47.6538 56.9889 47.2799 57.3226 46.9246 57.6782H65.5399C65.1831 57.3226 64.808 56.9889 64.4166 56.6782ZM62.2572 61.1247C60.0634 61.6403 58.0192 62.7662 56.3896 64.411C54.7625 66.0532 53.6502 68.116 53.1366 70.3377L62.2572 61.1247ZM63.4735 59.8961C60.5578 60.2435 57.7953 61.5714 55.6792 63.7072C53.5633 65.8427 52.2554 68.6307 51.9068 71.5799C51.8475 72.0815 51.8159 72.5877 51.8129 73.0962L64.9711 59.8048C64.4691 59.8064 63.9691 59.8371 63.4735 59.8961ZM68.7013 74.4152H66.9087V77.0937H68.7013V74.4152ZM66.9087 70.2885H68.7013V67.61H66.9087V70.2885ZM66.9087 83.6585C67.2086 83.6483 67.5075 83.6437 67.805 83.6437C68.1025 83.6437 68.4013 83.6483 68.7013 83.6585V81.2203H66.9087V83.6585ZM66.9087 84.6591C66.5753 84.6709 66.242 84.6901 65.9087 84.7181V80.2203H69.7013V84.7181C69.3679 84.6901 69.0346 84.6709 68.7013 84.6591C68.4025 84.6485 68.1037 84.6437 67.805 84.6437C67.5062 84.6437 67.2074 84.6485 66.9087 84.6591ZM66.9087 63.4834H68.7013V62.2685L67.8155 61.3745L66.9087 62.2898V63.4834ZM69.7013 61.857V64.4834H65.9087V61.8783L67.8154 59.9538L69.7013 61.857ZM83.8182 73.0962C83.8151 72.5877 83.7836 72.0815 83.7243 71.5799C83.3756 68.6307 82.0677 65.8427 79.9518 63.7072C77.8367 61.5723 75.0756 60.2524 72.1613 59.9C71.6645 59.8399 71.1632 59.8079 70.66 59.8048L83.8182 73.0962ZM73.3798 61.1308L82.4944 70.3377C81.9809 68.116 80.8685 66.0532 79.2414 64.411C77.6145 62.7689 75.5728 61.648 73.3798 61.1308ZM71.2216 56.6782C73.5294 54.8422 76.4142 53.8077 79.4145 53.8077C82.4149 53.8077 85.2919 54.8422 87.6041 56.6782C87.9955 56.9889 88.3706 57.3226 88.7275 57.6782H70.1016C70.4569 57.3226 70.831 56.9889 71.2216 56.6782ZM72.948 56.6782C74.8653 55.4725 77.1036 54.8077 79.4145 54.8077C81.7244 54.8077 83.9577 55.4721 85.8764 56.6782H72.948ZM65.9087 73.4152V78.0937H69.7013V73.4152H65.9087ZM69.7013 71.2885V66.61H65.9087V71.2885H69.7013Z" fill="#3CE5E1"/>
<path d="M72.7248 46.4922C75.2005 43.9934 78.5612 42.6111 82.0167 42.5898L68.8585 55.8706C68.8795 52.3829 70.2491 48.991 72.7248 46.4922Z" fill="#88FAFA"/>
<path d="M62.8746 46.4922C65.3503 48.991 66.7304 52.3829 66.7409 55.8706L53.5827 42.5898C57.0382 42.6111 60.3989 43.9934 62.8746 46.4922Z" fill="#88FAFA"/>
<path d="M70.1016 57.6782C72.5563 55.2219 75.9064 53.8077 79.4146 53.8077C82.9227 53.8077 86.2623 55.2219 88.7275 57.6782H70.1016Z" fill="#88FAFA"/>
<path d="M83.8181 73.0962L70.6599 59.8048C74.1154 59.8261 77.4761 61.2084 79.9518 63.7072C82.4275 66.2059 83.7971 69.5979 83.8181 73.0962Z" fill="#88FAFA"/>
<path d="M55.6792 63.7072C58.1549 61.2084 61.5156 59.8154 64.9711 59.8048L51.8129 73.0962C51.8339 69.5979 53.2035 66.2059 55.6792 63.7072Z" fill="#88FAFA"/>
<path d="M56.227 53.8077C59.7352 53.8077 63.0748 55.2219 65.54 57.6782H46.9246C49.3793 55.2219 52.7189 53.8077 56.227 53.8077Z" fill="#88FAFA"/>
</svg>
